<?xml version="1.0" encoding="utf-8"?>
<!-- Svg Vector Icons : http://www.onlinewebfonts.com/icon -->
<!DOCTYPE svg PUBLIC "-//W3C//DTD SVG 1.1//EN" "http://www.w3.org/Graphics/SVG/1.1/DTD/svg11.dtd">
<svg version="1.1" xmlns="http://www.w3.org/2000/svg" xmlns:xlink="http://www.w3.org/1999/xlink" x="0px" y="0px" viewBox="0 0 1000 1000" enable-background="new 0 0 1000 1000" xml:space="preserve">
<metadata> Svg Vector Icons : http://www.onlinewebfonts.com/icon </metadata>
<g><g transform="translate(0.000000,511.000000) scale(0.100000,-0.100000)"><path style="fill:#FFFFFF;" d="M2317.6,4639.8c-539.5-87.4-1044.8-349.7-1439.3-746.3C349.5,3362.6,100,2725.1,100,1895.6c0-684.5,217.5-1354,648.2-1997.9c328.4-488.3,622.6-797.5,1580-1652.5C3690.8-2970.3,4164.1-3452.2,4710-4177.1c196.2-260.1,202.6-266.5,290-272.9c98.1-6.4,70.4-38.4,415.8,435c392.4,533.1,933.9,1098.1,1966,2051.3c763.4,705.8,1428.6,1364.7,1682.4,1667.5c415.8,496.8,667.4,995.8,793.2,1577.9c55.4,255.9,57.6,997.9,2.1,1251.7c-206.8,963.8-863.6,1703.7-1780.4,2010.7c-507.5,168.5-1136.5,172.7-1639.7,8.5c-516-168.4-987.2-501.1-1313.5-929.7c-59.7-78.9-115.1-145-121.5-142.9c-6.4,0-64,68.2-127.9,149.3c-388.1,496.8-948.9,859.3-1533.1,991.5C3140.6,4665.4,2545.7,4678.2,2317.6,4639.8z M3181.2,4264.6c415.8-76.8,912.6-354,1198.3-667.4c130.1-140.7,435-584.2,541.6-788.9c89.6-170.6,61.8-187.6,253.7,157.8c168.5,302.8,311.3,503.2,467,661c865.7,863.6,2266.6,880.6,3172.8,36.3c496.8-462.7,739.9-1108.8,703.7-1867.9c-34.1-678.1-290-1283.6-818.8-1942.5c-226-281.5-705.8-752.7-1403-1377.5C6260.2-2450,5673.8-3047,5208.9-3646.2c-102.3-134.3-194-245.2-202.5-249.5c-8.5-2.1-108.8,108.7-221.8,249.5c-441.4,543.7-876.4,985.1-1838,1857.2C1910.3-848.7,1255.7-177,984.9,228.1c-311.3,462.7-471.2,959.5-494.7,1533.1c-40.5,1042.7,347.6,1795.4,1151.4,2228.2C2136.3,4258.2,2692.9,4356.2,3181.2,4264.6z"/></g></g>
</svg>